<svg width="32" height="32" viewBox="0 0 80 80" fill="none" xmlns="http://www.w3.org/2000/svg">
  <defs>
    <linearGradient id="base-body-gradient" x1="0" y1="0" x2="0" y2="1">
      <stop offset="0%" stop-color="#2E3338" />
      <stop offset="100%" stop-color="#14171A" />
    </linearGradient>

    <linearGradient id="base-stroke-gradient" x1="0" y1="0" x2="1" y2="1">
      <stop offset="0%" stop-color="#5E656E" />
      <stop offset="40%" stop-color="#2A2F33" />
      <stop offset="100%" stop-color="#0A0C0D" />
    </linearGradient>

    <filter id="drop-shadow" x="-50%" y="-50%" width="200%" height="200%">
      <feGaussianBlur in="SourceAlpha" stdDeviation="1.5" />
      <feOffset dx="0" dy="2" result="offsetblur" />
      <feComponentTransfer>
        <feFuncA type="linear" slope="0.4" />
      </feComponentTransfer>
      <feMerge>
        <feMergeNode />
        <feMergeNode in="SourceGraphic" />
      </feMerge>
    </filter>

    <linearGradient id="concave-gradient" x1="0" y1="0" x2="0" y2="1">
      <stop offset="0%" stop-color="#1F2327" />
      <stop offset="50%" stop-color="#2A2F33" />
      <stop offset="100%" stop-color="#353B40" />
    </linearGradient>
    <linearGradient id="lightning-gradient" x1="0" y1="0" x2="1" y2="1">
      <stop offset="0%" stop-color="#FFFFFF" />
      <stop offset="30%" stop-color="#03defe" />
      <stop offset="100%" stop-color="#ECFEFF" />
    </linearGradient>

    <filter id="neon-glow" x="-50%" y="-50%" width="200%" height="200%">
      <feGaussianBlur in="SourceAlpha" stdDeviation="2.5" result="blur" />
      <feFlood flood-color="#03defe" result="color" />
      <feComposite in="color" in2="blur" operator="in" result="coloredBlur" />
      <feMerge>
        <feMergeNode in="coloredBlur" />
        <feMergeNode in="SourceGraphic" />
      </feMerge>
    </filter>
  </defs>

  <rect width="78" height="78" rx="18" x="1" y="1"
    fill="url(#base-body-gradient)"
    stroke="url(#base-stroke-gradient)"
    stroke-width="1" />

  <rect x="10" y="3" width="60" height="65" rx="14" fill="url(#concave-gradient)" />

  <g transform="translate(14, 9)">
    <g transform="scale(1, 1.05)">
      <svg width="52" height="52" viewBox="0 0 1024 1024">
        <path
          d="M413.589333 577.472h-150.784c-19.690667 0-33.28-19.712-26.261333-38.101333L386.346667 146.090667A28.096 28.096 0 0 1 412.586667 128h252.864c19.946667 0 33.536 20.202667 26.005333 38.677333l-87.253333 214.144h164.266666c24.149333 0 37.034667 28.48 21.098667 46.634667L386.922667 886.293333c-19.584 22.293333-55.893333 2.965333-48.277334-25.728l74.944-283.093333z"
          fill="url(#lightning-gradient)"
          filter="url(#neon-glow)" />
      </svg>
    </g>
  </g>
</svg>